<svg width="104" height="104" viewBox="0 0 104 104" fill="none" xmlns="http://www.w3.org/2000/svg">
<path d="M0 14C0 6.26803 6.26801 0 14 0H89.9974C97.7294 0 103.997 6.26801 103.997 14V89.9974C103.997 97.7294 97.7294 103.997 89.9974 103.997H14C6.26803 103.997 0 97.7294 0 89.9974V14Z" fill="#00D4E6"/>
<path d="M46.6656 73.3309L43.3324 66.6646L35.9994 67.9978" stroke="#0F1F3D" stroke-width="5.33312" stroke-linecap="round" stroke-linejoin="round"/>
<path d="M46.6656 30.666L43.3324 37.3324L35.9994 35.9991" stroke="#0F1F3D" stroke-width="5.33312" stroke-linecap="round" stroke-linejoin="round"/>
<path d="M57.3318 73.3309L60.665 66.6646L67.998 67.9978" stroke="#0F1F3D" stroke-width="5.33312" stroke-linecap="round" stroke-linejoin="round"/>
<path d="M57.3318 30.666L60.665 37.3324L67.998 35.9991" stroke="#0F1F3D" stroke-width="5.33312" stroke-linecap="round" stroke-linejoin="round"/>
<path d="M65.3315 75.9979L57.3318 59.9985H46.6656" stroke="#0F1F3D" stroke-width="5.33312" stroke-linecap="round" stroke-linejoin="round"/>
<path d="M65.3315 27.9995L57.3318 43.9989L61.3317 51.9985" stroke="#0F1F3D" stroke-width="5.33312" stroke-linecap="round" stroke-linejoin="round"/>
<path d="M25.3331 51.9987H42.6658L46.6656 43.999" stroke="#0F1F3D" stroke-width="5.33312" stroke-linecap="round" stroke-linejoin="round"/>
<path d="M73.3312 46.6655L69.3313 51.9986L73.3312 57.3318" stroke="#0F1F3D" stroke-width="5.33312" stroke-linecap="round" stroke-linejoin="round"/>
<path d="M78.6643 51.9985H61.3317L57.3318 59.9982" stroke="#0F1F3D" stroke-width="5.33312" stroke-linecap="round" stroke-linejoin="round"/>
<path d="M30.6662 46.6655L34.6661 51.9986L30.6662 57.3318" stroke="#0F1F3D" stroke-width="5.33312" stroke-linecap="round" stroke-linejoin="round"/>
<path d="M38.6659 75.9976L46.6656 59.9982L42.6657 51.9985" stroke="#0F1F3D" stroke-width="5.33312" stroke-linecap="round" stroke-linejoin="round"/>
<path d="M38.6659 27.9995L46.6656 43.9989H57.3318" stroke="#0F1F3D" stroke-width="5.33312" stroke-linecap="round" stroke-linejoin="round"/>
</svg>
